<?xml version="1.0" encoding="utf-8"?>
<!-- Generator: Adobe Illustrator 26.5.0, SVG Export Plug-In . SVG Version: 6.00 Build 0)  -->
<svg version="1.1" id="Layer_1" xmlns="http://www.w3.org/2000/svg" xmlns:xlink="http://www.w3.org/1999/xlink" x="0px" y="0px"
	 viewBox="0 0 500 500" style="enable-background:new 0 0 500 500;" xml:space="preserve">
<style type="text/css">
	.st0{fill:#F5C729;}
	.st1{fill:#FFFFFF;}
</style>
<g>
	<circle class="st0" cx="249.5" cy="250.5" r="250.5"/>
</g>
<g>
	<path class="st1" d="M123.8,422.7c-0.4,0-0.9,0-1.4-0.1c-4.3-0.8-7.1-4.8-6.3-9.1l53.5-303.4c0.9-4.8,5.2-8.1,10.1-7.6
		c4.9,0.5,8.4,4.6,8.2,9.5c-2.5,62.4,6.9,109.4,25.7,129c7.3,7.6,15.9,11.2,26.2,11.2c59.8,0,109.4-91.8,123.2-120
		c2-4.2,6.8-6.2,11.3-4.6c4.4,1.5,7,6.1,6,10.7l-55.5,258.8c-0.9,4.2-5.1,6.8-9.3,6c-4.2-0.9-6.9-5.1-6-9.3l46.3-216.2
		c-25.7,41.3-66.5,90.3-116,90.3c-14.7,0-27.3-5.4-37.5-16c-16.8-17.5-24.7-47.5-28.1-77.4l-42.6,241.7
		C130.8,420,127.5,422.7,123.8,422.7z M365,135.1C365,135.1,365,135.1,365,135.1L365,135.1z"/>
</g>
</svg>
