<?xml version="1.0" encoding="utf-8"?>
<!-- Generator: Adobe Illustrator 26.5.0, SVG Export Plug-In . SVG Version: 6.00 Build 0)  -->
<svg version="1.1" id="Layer_1" xmlns="http://www.w3.org/2000/svg" xmlns:xlink="http://www.w3.org/1999/xlink" x="0px" y="0px"
	 viewBox="0 0 500 500" style="enable-background:new 0 0 500 500;" xml:space="preserve">
<style type="text/css">
	.st0{fill:#0B36A8;}
	.st1{fill:#FFFFFF;}
</style>
<g>
	<circle class="st0" cx="249.5" cy="250.5" r="250.5"/>
</g>
<g>
	<path class="st1" d="M123.8,422.72c-0.45,0-0.91-0.03-1.37-0.12c-4.26-0.75-7.1-4.82-6.35-9.07l53.54-303.37
		c0.85-4.84,5.21-8.13,10.07-7.58c4.86,0.52,8.39,4.61,8.19,9.5c-2.5,62.38,6.87,109.4,25.71,129.02
		c7.26,7.55,15.85,11.23,26.24,11.23c59.85,0,109.45-91.85,123.22-120c2.05-4.18,6.79-6.2,11.3-4.64c4.39,1.54,6.96,6.13,5.95,10.69
		l-55.45,258.8c-0.92,4.25-5.12,6.83-9.3,6.02c-4.24-0.92-6.93-5.08-6.02-9.3l46.34-216.24c-25.66,41.27-66.55,90.32-116.04,90.32
		c-14.68,0-27.31-5.4-37.54-16.04c-16.82-17.51-24.73-47.52-28.15-77.38L131.5,416.25C130.83,420.04,127.53,422.72,123.8,422.72z
		 M365,135.05c0,0.03,0,0.05-0.02,0.08L365,135.05z"/>
</g>
</svg>
